<mxfile host="app.diagrams.net" agent="Mozilla/5.0 (Windows NT 10.0; Win64; x64) AppleWebKit/537.36 (KHTML, like Gecko) Chrome/138.0.0.0 Safari/537.36" version="28.0.7">
  <diagram id="Od5kuo0vDd7xgKpaRBWb" name="C4">
    <mxGraphModel dx="3049" dy="4159" grid="1" gridSize="10" guides="1" tooltips="1" connect="1" arrows="1" fold="1" page="1" pageScale="1" pageWidth="827" pageHeight="1169" math="0" shadow="0">
      <root>
        <mxCell id="0" />
        <mxCell id="1" parent="0" />
        <mxCell id="_17nwlh-U86xKVVxEvVM-50" style="edgeStyle=orthogonalEdgeStyle;rounded=0;orthogonalLoop=1;jettySize=auto;html=1;startArrow=classic;startFill=1;" parent="1" source="_17nwlh-U86xKVVxEvVM-52" target="_17nwlh-U86xKVVxEvVM-62" edge="1">
          <mxGeometry relative="1" as="geometry" />
        </mxCell>
        <mxCell id="_17nwlh-U86xKVVxEvVM-122" value="CRUD&lt;br&gt;operation" style="edgeLabel;html=1;align=center;verticalAlign=middle;resizable=0;points=[];" parent="_17nwlh-U86xKVVxEvVM-50" vertex="1" connectable="0">
          <mxGeometry x="0.0111" y="1" relative="1" as="geometry">
            <mxPoint as="offset" />
          </mxGeometry>
        </mxCell>
        <object placeholders="1" c4Name="Новостной сервис" c4Type="Container" c4Technology="e.g. SpringBoot, ElasticSearch, etc." c4Description="CRUD для новостей" label="&lt;font style=&quot;font-size: 16px&quot;&gt;&lt;b&gt;%c4Name%&lt;/b&gt;&lt;/font&gt;&lt;div&gt;[%c4Type%: %c4Technology%]&lt;/div&gt;&lt;br&gt;&lt;div&gt;&lt;font style=&quot;font-size: 11px&quot;&gt;&lt;font color=&quot;#E6E6E6&quot;&gt;%c4Description%&lt;/font&gt;&lt;/div&gt;" id="_17nwlh-U86xKVVxEvVM-52">
          <mxCell style="rounded=1;whiteSpace=wrap;html=1;fontSize=11;labelBackgroundColor=none;fillColor=#23A2D9;fontColor=#ffffff;align=center;arcSize=10;strokeColor=#0E7DAD;metaEdit=1;resizable=0;points=[[0.25,0,0],[0.5,0,0],[0.75,0,0],[1,0.25,0],[1,0.5,0],[1,0.75,0],[0.75,1,0],[0.5,1,0],[0.25,1,0],[0,0.75,0],[0,0.5,0],[0,0.25,0]];" parent="1" vertex="1">
            <mxGeometry x="3755" y="696.5" width="240" height="120" as="geometry" />
          </mxCell>
        </object>
        <object placeholders="1" c4Name="Admin Panel UI" c4Type="Container" c4Technology="e.g. SpringBoot, ElasticSearch, etc." c4Description="Создание, удаление, редактирование, утверждение новостей" label="&lt;font style=&quot;font-size: 16px&quot;&gt;&lt;b&gt;%c4Name%&lt;/b&gt;&lt;/font&gt;&lt;div&gt;[%c4Type%: %c4Technology%]&lt;/div&gt;&lt;br&gt;&lt;div&gt;&lt;font style=&quot;font-size: 11px&quot;&gt;&lt;font color=&quot;#E6E6E6&quot;&gt;%c4Description%&lt;/font&gt;&lt;/div&gt;" id="_17nwlh-U86xKVVxEvVM-53">
          <mxCell style="rounded=1;whiteSpace=wrap;html=1;fontSize=11;labelBackgroundColor=none;fillColor=#23A2D9;fontColor=#ffffff;align=center;arcSize=10;strokeColor=#0E7DAD;metaEdit=1;resizable=0;points=[[0.25,0,0],[0.5,0,0],[0.75,0,0],[1,0.25,0],[1,0.5,0],[1,0.75,0],[0.75,1,0],[0.5,1,0],[0.25,1,0],[0,0.75,0],[0,0.5,0],[0,0.25,0]];" parent="1" vertex="1">
            <mxGeometry x="3756" y="1188" width="240" height="120" as="geometry" />
          </mxCell>
        </object>
        <object placeholders="1" c4Name="Авторы" c4Type="Person" c4Description="Description of person." label="&lt;font style=&quot;font-size: 16px&quot;&gt;&lt;b&gt;%c4Name%&lt;/b&gt;&lt;/font&gt;&lt;div&gt;[%c4Type%]&lt;/div&gt;&lt;br&gt;&lt;div&gt;&lt;font style=&quot;font-size: 11px&quot;&gt;&lt;font color=&quot;#cccccc&quot;&gt;%c4Description%&lt;/font&gt;&lt;/div&gt;" id="_17nwlh-U86xKVVxEvVM-54">
          <mxCell style="html=1;fontSize=11;dashed=0;whiteSpace=wrap;fillColor=#083F75;strokeColor=#06315C;fontColor=#ffffff;shape=mxgraph.c4.person2;align=center;metaEdit=1;points=[[0.5,0,0],[1,0.5,0],[1,0.75,0],[0.75,1,0],[0.5,1,0],[0.25,1,0],[0,0.75,0],[0,0.5,0]];resizable=0;" parent="1" vertex="1">
            <mxGeometry x="3520" y="1430" width="200" height="180" as="geometry" />
          </mxCell>
        </object>
        <object placeholders="1" c4Name="Модераторы" c4Type="Person" c4Description="Description of person." label="&lt;font style=&quot;font-size: 16px&quot;&gt;&lt;b&gt;%c4Name%&lt;/b&gt;&lt;/font&gt;&lt;div&gt;[%c4Type%]&lt;/div&gt;&lt;br&gt;&lt;div&gt;&lt;font style=&quot;font-size: 11px&quot;&gt;&lt;font color=&quot;#cccccc&quot;&gt;%c4Description%&lt;/font&gt;&lt;/div&gt;" id="_17nwlh-U86xKVVxEvVM-55">
          <mxCell style="html=1;fontSize=11;dashed=0;whiteSpace=wrap;fillColor=#083F75;strokeColor=#06315C;fontColor=#ffffff;shape=mxgraph.c4.person2;align=center;metaEdit=1;points=[[0.5,0,0],[1,0.5,0],[1,0.75,0],[0.75,1,0],[0.5,1,0],[0.25,1,0],[0,0.75,0],[0,0.5,0]];resizable=0;" parent="1" vertex="1">
            <mxGeometry x="4060" y="1430" width="200" height="180" as="geometry" />
          </mxCell>
        </object>
        <mxCell id="_17nwlh-U86xKVVxEvVM-56" style="edgeStyle=orthogonalEdgeStyle;rounded=0;orthogonalLoop=1;jettySize=auto;html=1;entryX=0;entryY=0.75;entryDx=0;entryDy=0;entryPerimeter=0;exitX=0.5;exitY=0;exitDx=0;exitDy=0;exitPerimeter=0;curved=1;" parent="1" source="_17nwlh-U86xKVVxEvVM-54" target="_17nwlh-U86xKVVxEvVM-53" edge="1">
          <mxGeometry relative="1" as="geometry">
            <mxPoint x="3666" y="1398" as="sourcePoint" />
          </mxGeometry>
        </mxCell>
        <mxCell id="_17nwlh-U86xKVVxEvVM-120" value="Публикует новость" style="edgeLabel;html=1;align=center;verticalAlign=middle;resizable=0;points=[];" parent="_17nwlh-U86xKVVxEvVM-56" vertex="1" connectable="0">
          <mxGeometry x="-0.5479" y="-6" relative="1" as="geometry">
            <mxPoint as="offset" />
          </mxGeometry>
        </mxCell>
        <mxCell id="_17nwlh-U86xKVVxEvVM-58" style="edgeStyle=orthogonalEdgeStyle;rounded=0;orthogonalLoop=1;jettySize=auto;html=1;entryX=1;entryY=0.75;entryDx=0;entryDy=0;entryPerimeter=0;exitX=0.5;exitY=0;exitDx=0;exitDy=0;exitPerimeter=0;curved=1;" parent="1" source="_17nwlh-U86xKVVxEvVM-55" target="_17nwlh-U86xKVVxEvVM-53" edge="1">
          <mxGeometry relative="1" as="geometry">
            <mxPoint x="4056" y="1398" as="sourcePoint" />
          </mxGeometry>
        </mxCell>
        <mxCell id="_17nwlh-U86xKVVxEvVM-121" value="Модерирует новость / меняет статус" style="edgeLabel;html=1;align=center;verticalAlign=middle;resizable=0;points=[];" parent="_17nwlh-U86xKVVxEvVM-58" vertex="1" connectable="0">
          <mxGeometry x="-0.6531" y="9" relative="1" as="geometry">
            <mxPoint as="offset" />
          </mxGeometry>
        </mxCell>
        <mxCell id="_17nwlh-U86xKVVxEvVM-59" style="edgeStyle=orthogonalEdgeStyle;rounded=0;orthogonalLoop=1;jettySize=auto;html=1;entryX=0.5;entryY=1;entryDx=0;entryDy=0;entryPerimeter=0;" parent="1" source="_17nwlh-U86xKVVxEvVM-53" target="_17nwlh-U86xKVVxEvVM-52" edge="1">
          <mxGeometry relative="1" as="geometry" />
        </mxCell>
        <mxCell id="_17nwlh-U86xKVVxEvVM-60" value="POST /api/v1/news&lt;br&gt;{JSON}" style="edgeLabel;html=1;align=center;verticalAlign=middle;resizable=0;points=[];" parent="_17nwlh-U86xKVVxEvVM-59" vertex="1" connectable="0">
          <mxGeometry x="-0.0745" y="1" relative="1" as="geometry">
            <mxPoint as="offset" />
          </mxGeometry>
        </mxCell>
        <object placeholders="1" c4Name="DataBase News" c4Type="Container" c4Technology="PostgreSQL" c4Description="Хранит сущность &quot;Новость&quot;" label="&lt;font style=&quot;font-size: 16px&quot;&gt;&lt;b&gt;%c4Name%&lt;/b&gt;&lt;/font&gt;&lt;div&gt;[%c4Type%:&amp;nbsp;%c4Technology%]&lt;/div&gt;&lt;br&gt;&lt;div&gt;&lt;font style=&quot;font-size: 11px&quot;&gt;&lt;font color=&quot;#E6E6E6&quot;&gt;%c4Description%&lt;/font&gt;&lt;/div&gt;" id="_17nwlh-U86xKVVxEvVM-62">
          <mxCell style="shape=cylinder3;size=15;whiteSpace=wrap;html=1;boundedLbl=1;rounded=0;labelBackgroundColor=none;fillColor=#23A2D9;fontSize=12;fontColor=#ffffff;align=center;strokeColor=#0E7DAD;metaEdit=1;points=[[0.5,0,0],[1,0.25,0],[1,0.5,0],[1,0.75,0],[0.5,1,0],[0,0.75,0],[0,0.5,0],[0,0.25,0]];resizable=0;" parent="1" vertex="1">
            <mxGeometry x="3330" y="696.5" width="240" height="120" as="geometry" />
          </mxCell>
        </object>
        <object placeholders="1" c4Name="Web UI" c4Type="Container" c4Technology="SPA/SSR" c4Description="Новостной сайт" label="&lt;font style=&quot;font-size: 16px&quot;&gt;&lt;b&gt;%c4Name%&lt;/b&gt;&lt;/font&gt;&lt;div&gt;[%c4Type%: %c4Technology%]&lt;/div&gt;&lt;br&gt;&lt;div&gt;&lt;font style=&quot;font-size: 11px&quot;&gt;&lt;font color=&quot;#E6E6E6&quot;&gt;%c4Description%&lt;/font&gt;&lt;/div&gt;" id="_17nwlh-U86xKVVxEvVM-67">
          <mxCell style="rounded=1;whiteSpace=wrap;html=1;fontSize=11;labelBackgroundColor=none;fillColor=#23A2D9;fontColor=#ffffff;align=center;arcSize=10;strokeColor=#0E7DAD;metaEdit=1;resizable=0;points=[[0.25,0,0],[0.5,0,0],[0.75,0,0],[1,0.25,0],[1,0.5,0],[1,0.75,0],[0.75,1,0],[0.5,1,0],[0.25,1,0],[0,0.75,0],[0,0.5,0],[0,0.25,0]];" parent="1" vertex="1">
            <mxGeometry x="3741" y="-120" width="240" height="120" as="geometry" />
          </mxCell>
        </object>
        <object placeholders="1" c4Name="Mobile UI" c4Type="Container" c4Technology="e.g. SpringBoot, ElasticSearch, etc." c4Description="Мобильное приложение" label="&lt;font style=&quot;font-size: 16px&quot;&gt;&lt;b&gt;%c4Name%&lt;/b&gt;&lt;/font&gt;&lt;div&gt;[%c4Type%: %c4Technology%]&lt;/div&gt;&lt;br&gt;&lt;div&gt;&lt;font style=&quot;font-size: 11px&quot;&gt;&lt;font color=&quot;#E6E6E6&quot;&gt;%c4Description%&lt;/font&gt;&lt;/div&gt;" id="_17nwlh-U86xKVVxEvVM-68">
          <mxCell style="rounded=1;whiteSpace=wrap;html=1;fontSize=11;labelBackgroundColor=none;fillColor=#23A2D9;fontColor=#ffffff;align=center;arcSize=10;strokeColor=#0E7DAD;metaEdit=1;resizable=0;points=[[0.25,0,0],[0.5,0,0],[0.75,0,0],[1,0.25,0],[1,0.5,0],[1,0.75,0],[0.75,1,0],[0.5,1,0],[0.25,1,0],[0,0.75,0],[0,0.5,0],[0,0.25,0]];" parent="1" vertex="1">
            <mxGeometry x="4071" y="-120" width="240" height="120" as="geometry" />
          </mxCell>
        </object>
        <mxCell id="_17nwlh-U86xKVVxEvVM-69" style="edgeStyle=orthogonalEdgeStyle;rounded=0;orthogonalLoop=1;jettySize=auto;html=1;exitX=0;exitY=0.75;exitDx=0;exitDy=0;exitPerimeter=0;curved=1;" parent="1" source="_17nwlh-U86xKVVxEvVM-72" target="_17nwlh-U86xKVVxEvVM-67" edge="1">
          <mxGeometry relative="1" as="geometry" />
        </mxCell>
        <mxCell id="_17nwlh-U86xKVVxEvVM-70" value="Открывает&lt;div&gt;&amp;nbsp;новостную ленту&amp;nbsp;&lt;/div&gt;" style="edgeLabel;html=1;align=center;verticalAlign=middle;resizable=0;points=[];" parent="_17nwlh-U86xKVVxEvVM-69" vertex="1" connectable="0">
          <mxGeometry x="0.3402" relative="1" as="geometry">
            <mxPoint as="offset" />
          </mxGeometry>
        </mxCell>
        <mxCell id="_17nwlh-U86xKVVxEvVM-71" style="edgeStyle=orthogonalEdgeStyle;rounded=0;orthogonalLoop=1;jettySize=auto;html=1;exitX=1;exitY=0.75;exitDx=0;exitDy=0;exitPerimeter=0;curved=1;" parent="1" source="_17nwlh-U86xKVVxEvVM-72" target="_17nwlh-U86xKVVxEvVM-68" edge="1">
          <mxGeometry relative="1" as="geometry" />
        </mxCell>
        <object placeholders="1" c4Name="Пользователь" c4Type="Person" c4Description="Description of external person." label="&lt;font style=&quot;font-size: 16px&quot;&gt;&lt;b&gt;%c4Name%&lt;/b&gt;&lt;/font&gt;&lt;div&gt;[%c4Type%]&lt;/div&gt;&lt;br&gt;&lt;div&gt;&lt;font style=&quot;font-size: 11px&quot;&gt;&lt;font color=&quot;#cccccc&quot;&gt;%c4Description%&lt;/font&gt;&lt;/div&gt;" id="_17nwlh-U86xKVVxEvVM-72">
          <mxCell style="html=1;fontSize=11;dashed=0;whiteSpace=wrap;fillColor=#6C6477;strokeColor=#4D4D4D;fontColor=#ffffff;shape=mxgraph.c4.person2;align=center;metaEdit=1;points=[[0.5,0,0],[1,0.5,0],[1,0.75,0],[0.75,1,0],[0.5,1,0],[0.25,1,0],[0,0.75,0],[0,0.5,0]];resizable=0;" parent="1" vertex="1">
            <mxGeometry x="3931" y="-410" width="200" height="180" as="geometry" />
          </mxCell>
        </object>
        <mxCell id="_17nwlh-U86xKVVxEvVM-73" value="Открывает&lt;div&gt;&amp;nbsp;новостную ленту&amp;nbsp;&lt;/div&gt;" style="edgeLabel;html=1;align=center;verticalAlign=middle;resizable=0;points=[];" parent="1" vertex="1" connectable="0">
          <mxGeometry x="4191" y="-192" as="geometry" />
        </mxCell>
        <mxCell id="_17nwlh-U86xKVVxEvVM-95" style="edgeStyle=orthogonalEdgeStyle;rounded=0;orthogonalLoop=1;jettySize=auto;html=1;exitX=0.75;exitY=1;exitDx=0;exitDy=0;exitPerimeter=0;curved=1;" parent="1" source="_17nwlh-U86xKVVxEvVM-75" target="_17nwlh-U86xKVVxEvVM-91" edge="1">
          <mxGeometry relative="1" as="geometry" />
        </mxCell>
        <mxCell id="_17nwlh-U86xKVVxEvVM-118" value="GET /api/v1/hot_news?category=sport" style="edgeLabel;html=1;align=center;verticalAlign=middle;resizable=0;points=[];" parent="_17nwlh-U86xKVVxEvVM-95" vertex="1" connectable="0">
          <mxGeometry x="-0.2957" y="5" relative="1" as="geometry">
            <mxPoint as="offset" />
          </mxGeometry>
        </mxCell>
        <mxCell id="_17nwlh-U86xKVVxEvVM-96" style="edgeStyle=orthogonalEdgeStyle;rounded=0;orthogonalLoop=1;jettySize=auto;html=1;exitX=0.25;exitY=1;exitDx=0;exitDy=0;exitPerimeter=0;curved=1;" parent="1" source="_17nwlh-U86xKVVxEvVM-75" target="_17nwlh-U86xKVVxEvVM-52" edge="1">
          <mxGeometry relative="1" as="geometry" />
        </mxCell>
        <mxCell id="_17nwlh-U86xKVVxEvVM-119" value="GET /api/v1/news?category=sport" style="edgeLabel;html=1;align=center;verticalAlign=middle;resizable=0;points=[];" parent="_17nwlh-U86xKVVxEvVM-96" vertex="1" connectable="0">
          <mxGeometry x="-0.6782" y="-2" relative="1" as="geometry">
            <mxPoint as="offset" />
          </mxGeometry>
        </mxCell>
        <object placeholders="1" c4Name="API GateWay" c4Type="Container" c4Technology="e.g. SpringBoot, ElasticSearch, etc." c4Description="Новостной сайт" label="&lt;font style=&quot;font-size: 16px&quot;&gt;&lt;b&gt;%c4Name%&lt;/b&gt;&lt;/font&gt;&lt;div&gt;[%c4Type%: %c4Technology%]&lt;/div&gt;&lt;br&gt;&lt;div&gt;&lt;font style=&quot;font-size: 11px&quot;&gt;&lt;font color=&quot;#E6E6E6&quot;&gt;%c4Description%&lt;/font&gt;&lt;/div&gt;" id="_17nwlh-U86xKVVxEvVM-75">
          <mxCell style="rounded=1;whiteSpace=wrap;html=1;fontSize=11;labelBackgroundColor=none;fillColor=#23A2D9;fontColor=#ffffff;align=center;arcSize=10;strokeColor=#0E7DAD;metaEdit=1;resizable=0;points=[[0.25,0,0],[0.5,0,0],[0.75,0,0],[1,0.25,0],[1,0.5,0],[1,0.75,0],[0.75,1,0],[0.5,1,0],[0.25,1,0],[0,0.75,0],[0,0.5,0],[0,0.25,0]];" parent="1" vertex="1">
            <mxGeometry x="3906" y="100" width="240" height="120" as="geometry" />
          </mxCell>
        </object>
        <mxCell id="_17nwlh-U86xKVVxEvVM-78" style="edgeStyle=orthogonalEdgeStyle;rounded=0;orthogonalLoop=1;jettySize=auto;html=1;entryX=0;entryY=0.5;entryDx=0;entryDy=0;entryPerimeter=0;curved=1;" parent="1" source="_17nwlh-U86xKVVxEvVM-67" target="_17nwlh-U86xKVVxEvVM-75" edge="1">
          <mxGeometry relative="1" as="geometry" />
        </mxCell>
        <mxCell id="_17nwlh-U86xKVVxEvVM-79" value="GET /news?category=sport&lt;div&gt;&lt;span style=&quot;font-family: Menlo, &amp;quot;Roboto Mono&amp;quot;, &amp;quot;Courier New&amp;quot;, Courier, monospace, Inter, sans-serif; font-size: 12.573px; text-align: start; text-wrap-mode: wrap; background-color: light-dark(#ffffff, var(--ge-dark-color, #121212)); color: rgb(166, 38, 164);&quot; class=&quot;token header-name keyword&quot;&gt;X-Platform&lt;/span&gt;&lt;span style=&quot;font-family: Menlo, &amp;quot;Roboto Mono&amp;quot;, &amp;quot;Courier New&amp;quot;, Courier, monospace, Inter, sans-serif; font-size: 12.573px; text-align: start; text-wrap-mode: wrap; background-color: light-dark(#ffffff, var(--ge-dark-color, #121212)); color: rgb(56, 58, 66);&quot; class=&quot;token punctuation&quot;&gt;:&lt;/span&gt;&lt;span style=&quot;color: light-dark(rgb(73, 73, 73), rgb(174, 174, 174)); font-family: Menlo, &amp;quot;Roboto Mono&amp;quot;, &amp;quot;Courier New&amp;quot;, Courier, monospace, Inter, sans-serif; font-size: 12.573px; text-align: start; text-wrap-mode: wrap; background-color: light-dark(#ffffff, var(--ge-dark-color, #121212));&quot;&gt; &lt;/span&gt;&lt;span style=&quot;color: light-dark(rgb(73, 73, 73), rgb(174, 174, 174)); font-family: Menlo, &amp;quot;Roboto Mono&amp;quot;, &amp;quot;Courier New&amp;quot;, Courier, monospace, Inter, sans-serif; font-size: 12.573px; text-align: start; text-wrap-mode: wrap; background-color: light-dark(#ffffff, var(--ge-dark-color, #121212));&quot; class=&quot;token header-value&quot;&gt;web&lt;/span&gt;&lt;/div&gt;" style="edgeLabel;html=1;align=center;verticalAlign=middle;resizable=0;points=[];" parent="_17nwlh-U86xKVVxEvVM-78" vertex="1" connectable="0">
          <mxGeometry x="-0.4956" y="1" relative="1" as="geometry">
            <mxPoint as="offset" />
          </mxGeometry>
        </mxCell>
        <mxCell id="_17nwlh-U86xKVVxEvVM-80" style="edgeStyle=orthogonalEdgeStyle;rounded=0;orthogonalLoop=1;jettySize=auto;html=1;exitX=0.5;exitY=1;exitDx=0;exitDy=0;exitPerimeter=0;entryX=1;entryY=0.5;entryDx=0;entryDy=0;entryPerimeter=0;curved=1;" parent="1" source="_17nwlh-U86xKVVxEvVM-68" target="_17nwlh-U86xKVVxEvVM-75" edge="1">
          <mxGeometry relative="1" as="geometry" />
        </mxCell>
        <mxCell id="_17nwlh-U86xKVVxEvVM-81" value="GET /news?category=sport&lt;div&gt;&lt;span style=&quot;font-family: Menlo, &amp;quot;Roboto Mono&amp;quot;, &amp;quot;Courier New&amp;quot;, Courier, monospace, Inter, sans-serif; font-size: 12.573px; text-align: start; text-wrap-mode: wrap; background-color: light-dark(#ffffff, var(--ge-dark-color, #121212)); color: rgb(166, 38, 164);&quot; class=&quot;token header-name keyword&quot;&gt;X-Platform&lt;/span&gt;&lt;span style=&quot;font-family: Menlo, &amp;quot;Roboto Mono&amp;quot;, &amp;quot;Courier New&amp;quot;, Courier, monospace, Inter, sans-serif; font-size: 12.573px; text-align: start; text-wrap-mode: wrap; background-color: light-dark(#ffffff, var(--ge-dark-color, #121212)); color: rgb(56, 58, 66);&quot; class=&quot;token punctuation&quot;&gt;:&lt;/span&gt;&lt;span style=&quot;color: light-dark(rgb(73, 73, 73), rgb(174, 174, 174)); font-family: Menlo, &amp;quot;Roboto Mono&amp;quot;, &amp;quot;Courier New&amp;quot;, Courier, monospace, Inter, sans-serif; font-size: 12.573px; text-align: start; text-wrap-mode: wrap; background-color: light-dark(#ffffff, var(--ge-dark-color, #121212));&quot;&gt; mobile&lt;/span&gt;&lt;/div&gt;" style="edgeLabel;html=1;align=center;verticalAlign=middle;resizable=0;points=[];" parent="_17nwlh-U86xKVVxEvVM-80" vertex="1" connectable="0">
          <mxGeometry x="-0.489" y="-2" relative="1" as="geometry">
            <mxPoint x="2" as="offset" />
          </mxGeometry>
        </mxCell>
        <mxCell id="_17nwlh-U86xKVVxEvVM-94" style="edgeStyle=orthogonalEdgeStyle;rounded=0;orthogonalLoop=1;jettySize=auto;html=1;exitX=0.5;exitY=1;exitDx=0;exitDy=0;exitPerimeter=0;curved=1;" parent="1" source="_17nwlh-U86xKVVxEvVM-91" target="_17nwlh-U86xKVVxEvVM-92" edge="1">
          <mxGeometry relative="1" as="geometry">
            <mxPoint x="4210" y="560" as="sourcePoint" />
          </mxGeometry>
        </mxCell>
        <mxCell id="_17nwlh-U86xKVVxEvVM-137" value="Read event" style="edgeLabel;html=1;align=center;verticalAlign=middle;resizable=0;points=[];" parent="_17nwlh-U86xKVVxEvVM-94" vertex="1" connectable="0">
          <mxGeometry x="-0.0969" y="6" relative="1" as="geometry">
            <mxPoint x="-1" as="offset" />
          </mxGeometry>
        </mxCell>
        <object placeholders="1" c4Name="Сервис горячих новостей" c4Type="Container" c4Technology="e.g. SpringBoot, ElasticSearch, etc." c4Description="Реплицирует только что опубликованные новости в Redis. " label="&lt;font style=&quot;font-size: 16px&quot;&gt;&lt;b&gt;%c4Name%&lt;/b&gt;&lt;/font&gt;&lt;div&gt;[%c4Type%: %c4Technology%]&lt;/div&gt;&lt;br&gt;&lt;div&gt;&lt;font style=&quot;font-size: 11px&quot;&gt;&lt;font color=&quot;#E6E6E6&quot;&gt;%c4Description%&lt;/font&gt;&lt;/div&gt;" id="_17nwlh-U86xKVVxEvVM-91">
          <mxCell style="rounded=1;whiteSpace=wrap;html=1;fontSize=11;labelBackgroundColor=none;fillColor=#23A2D9;fontColor=#ffffff;align=center;arcSize=10;strokeColor=#0E7DAD;metaEdit=1;resizable=0;points=[[0.25,0,0],[0.5,0,0],[0.75,0,0],[1,0.25,0],[1,0.5,0],[1,0.75,0],[0.75,1,0],[0.5,1,0],[0.25,1,0],[0,0.75,0],[0,0.5,0],[0,0.25,0]];" parent="1" vertex="1">
            <mxGeometry x="4100" y="330" width="240" height="120" as="geometry" />
          </mxCell>
        </object>
        <object placeholders="1" c4Name="ChangeStatusNews" c4Type="Container" c4Technology="e.g. Apache Kafka, etc." c4Description="Топик Kafka куда пишутся события об изменении статуса &quot;Новости&quot;" label="&lt;font style=&quot;font-size: 16px&quot;&gt;&lt;b&gt;%c4Name%&lt;/b&gt;&lt;/font&gt;&lt;div&gt;[%c4Type%:&amp;nbsp;%c4Technology%]&lt;/div&gt;&lt;br&gt;&lt;div&gt;&lt;font style=&quot;font-size: 11px&quot;&gt;&lt;font color=&quot;#E6E6E6&quot;&gt;%c4Description%&lt;/font&gt;&lt;/div&gt;" id="_17nwlh-U86xKVVxEvVM-92">
          <mxCell style="shape=cylinder3;size=15;direction=south;whiteSpace=wrap;html=1;boundedLbl=1;rounded=0;labelBackgroundColor=none;fillColor=#23A2D9;fontSize=12;fontColor=#ffffff;align=center;strokeColor=#0E7DAD;metaEdit=1;points=[[0.5,0,0],[1,0.25,0],[1,0.5,0],[1,0.75,0],[0.5,1,0],[0,0.75,0],[0,0.5,0],[0,0.25,0]];resizable=0;" parent="1" vertex="1">
            <mxGeometry x="4160" y="632.5" width="240" height="120" as="geometry" />
          </mxCell>
        </object>
        <mxCell id="_17nwlh-U86xKVVxEvVM-93" style="edgeStyle=orthogonalEdgeStyle;rounded=0;orthogonalLoop=1;jettySize=auto;html=1;exitX=1;exitY=0.5;exitDx=0;exitDy=0;exitPerimeter=0;entryX=0.5;entryY=1;entryDx=0;entryDy=0;entryPerimeter=0;curved=1;" parent="1" source="_17nwlh-U86xKVVxEvVM-52" target="_17nwlh-U86xKVVxEvVM-92" edge="1">
          <mxGeometry relative="1" as="geometry" />
        </mxCell>
        <mxCell id="_17nwlh-U86xKVVxEvVM-111" value="Publish event" style="edgeLabel;html=1;align=center;verticalAlign=middle;resizable=0;points=[];" parent="_17nwlh-U86xKVVxEvVM-93" vertex="1" connectable="0">
          <mxGeometry x="-0.1471" y="8" relative="1" as="geometry">
            <mxPoint as="offset" />
          </mxGeometry>
        </mxCell>
        <object placeholders="1" c4Name="DataBase HOT NEWS" c4Type="Container" c4Technology="Redis" c4Description="Хранит сущность &quot;Новость&quot;" label="&lt;font style=&quot;font-size: 16px&quot;&gt;&lt;b&gt;%c4Name%&lt;/b&gt;&lt;/font&gt;&lt;div&gt;[%c4Type%:&amp;nbsp;%c4Technology%]&lt;/div&gt;&lt;br&gt;&lt;div&gt;&lt;font style=&quot;font-size: 11px&quot;&gt;&lt;font color=&quot;#E6E6E6&quot;&gt;%c4Description%&lt;/font&gt;&lt;/div&gt;" id="_17nwlh-U86xKVVxEvVM-97">
          <mxCell style="shape=cylinder3;size=15;whiteSpace=wrap;html=1;boundedLbl=1;rounded=0;labelBackgroundColor=none;fillColor=#23A2D9;fontSize=12;fontColor=#ffffff;align=center;strokeColor=#0E7DAD;metaEdit=1;points=[[0.5,0,0],[1,0.25,0],[1,0.5,0],[1,0.75,0],[0.5,1,0],[0,0.75,0],[0,0.5,0],[0,0.25,0]];resizable=0;" parent="1" vertex="1">
            <mxGeometry x="4350" y="210" width="240" height="120" as="geometry" />
          </mxCell>
        </object>
        <mxCell id="_17nwlh-U86xKVVxEvVM-98" style="edgeStyle=orthogonalEdgeStyle;rounded=0;orthogonalLoop=1;jettySize=auto;html=1;exitX=1;exitY=0.5;exitDx=0;exitDy=0;exitPerimeter=0;entryX=0.5;entryY=1;entryDx=0;entryDy=0;entryPerimeter=0;curved=1;" parent="1" source="_17nwlh-U86xKVVxEvVM-91" target="_17nwlh-U86xKVVxEvVM-97" edge="1">
          <mxGeometry relative="1" as="geometry" />
        </mxCell>
        <mxCell id="_17nwlh-U86xKVVxEvVM-128" value="CRUD&lt;br&gt;operation" style="edgeLabel;html=1;align=center;verticalAlign=middle;resizable=0;points=[];" parent="_17nwlh-U86xKVVxEvVM-98" vertex="1" connectable="0">
          <mxGeometry x="-0.161" y="7" relative="1" as="geometry">
            <mxPoint as="offset" />
          </mxGeometry>
        </mxCell>
        <object placeholders="1" c4Name="Сервис нотификации" c4Type="Container" c4Technology="e.g. SpringBoot, ElasticSearch, etc." c4Description="Отправляет уведомления о статусах сущности &quot;Новость&quot;" label="&lt;font style=&quot;font-size: 16px&quot;&gt;&lt;b&gt;%c4Name%&lt;/b&gt;&lt;/font&gt;&lt;div&gt;[%c4Type%: %c4Technology%]&lt;/div&gt;&lt;br&gt;&lt;div&gt;&lt;font style=&quot;font-size: 11px&quot;&gt;&lt;font color=&quot;#E6E6E6&quot;&gt;%c4Description%&lt;/font&gt;&lt;/div&gt;" id="_17nwlh-U86xKVVxEvVM-101">
          <mxCell style="rounded=1;whiteSpace=wrap;html=1;fontSize=11;labelBackgroundColor=none;fillColor=#23A2D9;fontColor=#ffffff;align=center;arcSize=10;strokeColor=#0E7DAD;metaEdit=1;resizable=0;points=[[0.25,0,0],[0.5,0,0],[0.75,0,0],[1,0.25,0],[1,0.5,0],[1,0.75,0],[0.75,1,0],[0.5,1,0],[0.25,1,0],[0,0.75,0],[0,0.5,0],[0,0.25,0]];" parent="1" vertex="1">
            <mxGeometry x="4650" y="540" width="240" height="120" as="geometry" />
          </mxCell>
        </object>
        <mxCell id="_17nwlh-U86xKVVxEvVM-105" style="edgeStyle=orthogonalEdgeStyle;rounded=0;orthogonalLoop=1;jettySize=auto;html=1;exitX=0;exitY=0.25;exitDx=0;exitDy=0;exitPerimeter=0;curved=1;" parent="1" source="_17nwlh-U86xKVVxEvVM-102" target="_17nwlh-U86xKVVxEvVM-92" edge="1">
          <mxGeometry relative="1" as="geometry" />
        </mxCell>
        <mxCell id="_17nwlh-U86xKVVxEvVM-115" value="Read event" style="edgeLabel;html=1;align=center;verticalAlign=middle;resizable=0;points=[];" parent="_17nwlh-U86xKVVxEvVM-105" vertex="1" connectable="0">
          <mxGeometry x="-0.3096" y="-9" relative="1" as="geometry">
            <mxPoint x="-1" as="offset" />
          </mxGeometry>
        </mxCell>
        <object placeholders="1" c4Name="Сервис модерации" c4Type="Container" c4Technology="e.g. SpringBoot, ElasticSearch, etc." c4Description="CRUD для новостей" label="&lt;font style=&quot;font-size: 16px&quot;&gt;&lt;b&gt;%c4Name%&lt;/b&gt;&lt;/font&gt;&lt;div&gt;[%c4Type%: %c4Technology%]&lt;/div&gt;&lt;br&gt;&lt;div&gt;&lt;font style=&quot;font-size: 11px&quot;&gt;&lt;font color=&quot;#E6E6E6&quot;&gt;%c4Description%&lt;/font&gt;&lt;/div&gt;" id="_17nwlh-U86xKVVxEvVM-102">
          <mxCell style="rounded=1;whiteSpace=wrap;html=1;fontSize=11;labelBackgroundColor=none;fillColor=#23A2D9;fontColor=#ffffff;align=center;arcSize=10;strokeColor=#0E7DAD;metaEdit=1;resizable=0;points=[[0.25,0,0],[0.5,0,0],[0.75,0,0],[1,0.25,0],[1,0.5,0],[1,0.75,0],[0.75,1,0],[0.5,1,0],[0.25,1,0],[0,0.75,0],[0,0.5,0],[0,0.25,0]];" parent="1" vertex="1">
            <mxGeometry x="4650" y="700" width="240" height="120" as="geometry" />
          </mxCell>
        </object>
        <mxCell id="_17nwlh-U86xKVVxEvVM-104" style="edgeStyle=orthogonalEdgeStyle;rounded=0;orthogonalLoop=1;jettySize=auto;html=1;exitX=0;exitY=0.5;exitDx=0;exitDy=0;exitPerimeter=0;entryX=0.5;entryY=0;entryDx=0;entryDy=0;entryPerimeter=0;curved=1;" parent="1" source="_17nwlh-U86xKVVxEvVM-101" target="_17nwlh-U86xKVVxEvVM-92" edge="1">
          <mxGeometry relative="1" as="geometry" />
        </mxCell>
        <mxCell id="_17nwlh-U86xKVVxEvVM-114" value="Read event" style="edgeLabel;html=1;align=center;verticalAlign=middle;resizable=0;points=[];" parent="_17nwlh-U86xKVVxEvVM-104" vertex="1" connectable="0">
          <mxGeometry x="-0.4204" y="13" relative="1" as="geometry">
            <mxPoint x="-1" as="offset" />
          </mxGeometry>
        </mxCell>
        <object placeholders="1" c4Name="Сервис мониторинга" c4Type="Container" c4Technology="" c4Description="Собирает статистику по просмотру новости. " label="&lt;font style=&quot;font-size: 16px&quot;&gt;&lt;b&gt;%c4Name%&lt;/b&gt;&lt;/font&gt;&lt;div&gt;[%c4Type%: %c4Technology%]&lt;/div&gt;&lt;br&gt;&lt;div&gt;&lt;font style=&quot;font-size: 11px&quot;&gt;&lt;font color=&quot;#E6E6E6&quot;&gt;%c4Description%&lt;/font&gt;&lt;/div&gt;" id="_17nwlh-U86xKVVxEvVM-106">
          <mxCell style="rounded=1;whiteSpace=wrap;html=1;fontSize=11;labelBackgroundColor=none;fillColor=#23A2D9;fontColor=#ffffff;align=center;arcSize=10;strokeColor=#0E7DAD;metaEdit=1;resizable=0;points=[[0.25,0,0],[0.5,0,0],[0.75,0,0],[1,0.25,0],[1,0.5,0],[1,0.75,0],[0.75,1,0],[0.5,1,0],[0.25,1,0],[0,0.75,0],[0,0.5,0],[0,0.25,0]];" parent="1" vertex="1">
            <mxGeometry x="3260" y="380" width="240" height="120" as="geometry" />
          </mxCell>
        </object>
        <object placeholders="1" c4Name="CheckStatusNews" c4Type="Container" c4Technology="e.g. Apache Kafka, etc." c4Description="Топик Kafka куда пишутся события о статусе автоматической проверки &quot;Новости&quot;" label="&lt;font style=&quot;font-size: 16px&quot;&gt;&lt;b&gt;%c4Name%&lt;/b&gt;&lt;/font&gt;&lt;div&gt;[%c4Type%:&amp;nbsp;%c4Technology%]&lt;/div&gt;&lt;br&gt;&lt;div&gt;&lt;font style=&quot;font-size: 11px&quot;&gt;&lt;font color=&quot;#E6E6E6&quot;&gt;%c4Description%&lt;/font&gt;&lt;/div&gt;" id="_17nwlh-U86xKVVxEvVM-107">
          <mxCell style="shape=cylinder3;size=15;direction=south;whiteSpace=wrap;html=1;boundedLbl=1;rounded=0;labelBackgroundColor=none;fillColor=#23A2D9;fontSize=12;fontColor=#ffffff;align=center;strokeColor=#0E7DAD;metaEdit=1;points=[[0.5,0,0],[1,0.25,0],[1,0.5,0],[1,0.75,0],[0.5,1,0],[0,0.75,0],[0,0.5,0],[0,0.25,0]];resizable=0;" parent="1" vertex="1">
            <mxGeometry x="4160" y="780" width="240" height="120" as="geometry" />
          </mxCell>
        </object>
        <mxCell id="_17nwlh-U86xKVVxEvVM-108" style="edgeStyle=orthogonalEdgeStyle;rounded=0;orthogonalLoop=1;jettySize=auto;html=1;exitX=0;exitY=0.75;exitDx=0;exitDy=0;exitPerimeter=0;entryX=0.5;entryY=0;entryDx=0;entryDy=0;entryPerimeter=0;curved=1;" parent="1" source="_17nwlh-U86xKVVxEvVM-102" target="_17nwlh-U86xKVVxEvVM-107" edge="1">
          <mxGeometry relative="1" as="geometry" />
        </mxCell>
        <mxCell id="_17nwlh-U86xKVVxEvVM-113" value="Publish event" style="edgeLabel;html=1;align=center;verticalAlign=middle;resizable=0;points=[];" parent="_17nwlh-U86xKVVxEvVM-108" vertex="1" connectable="0">
          <mxGeometry x="-0.0411" y="6" relative="1" as="geometry">
            <mxPoint as="offset" />
          </mxGeometry>
        </mxCell>
        <mxCell id="_17nwlh-U86xKVVxEvVM-110" style="edgeStyle=orthogonalEdgeStyle;rounded=0;orthogonalLoop=1;jettySize=auto;html=1;exitX=1;exitY=0.75;exitDx=0;exitDy=0;exitPerimeter=0;entryX=0.5;entryY=1;entryDx=0;entryDy=0;entryPerimeter=0;curved=1;" parent="1" source="_17nwlh-U86xKVVxEvVM-52" target="_17nwlh-U86xKVVxEvVM-107" edge="1">
          <mxGeometry relative="1" as="geometry" />
        </mxCell>
        <mxCell id="_17nwlh-U86xKVVxEvVM-112" value="Read event" style="edgeLabel;html=1;align=center;verticalAlign=middle;resizable=0;points=[];" parent="_17nwlh-U86xKVVxEvVM-110" vertex="1" connectable="0">
          <mxGeometry x="-0.0861" y="-1" relative="1" as="geometry">
            <mxPoint as="offset" />
          </mxGeometry>
        </mxCell>
        <mxCell id="_17nwlh-U86xKVVxEvVM-116" style="edgeStyle=orthogonalEdgeStyle;rounded=0;orthogonalLoop=1;jettySize=auto;html=1;entryX=0.75;entryY=1;entryDx=0;entryDy=0;entryPerimeter=0;curved=1;exitX=0.5;exitY=1;exitDx=0;exitDy=0;exitPerimeter=0;" parent="1" source="_17nwlh-U86xKVVxEvVM-102" target="_17nwlh-U86xKVVxEvVM-52" edge="1">
          <mxGeometry relative="1" as="geometry">
            <Array as="points">
              <mxPoint x="4770" y="970" />
              <mxPoint x="3935" y="970" />
            </Array>
          </mxGeometry>
        </mxCell>
        <mxCell id="_17nwlh-U86xKVVxEvVM-117" value="GET /api/v1/news/{id}" style="edgeLabel;html=1;align=center;verticalAlign=middle;resizable=0;points=[];" parent="_17nwlh-U86xKVVxEvVM-116" vertex="1" connectable="0">
          <mxGeometry x="-0.016" y="1" relative="1" as="geometry">
            <mxPoint as="offset" />
          </mxGeometry>
        </mxCell>
        <object placeholders="1" c4Name="Plagiatus" c4Type="Software System" c4Description="Сервис по проверки уникальности контента" label="&lt;font style=&quot;font-size: 16px&quot;&gt;&lt;b&gt;%c4Name%&lt;/b&gt;&lt;/font&gt;&lt;div&gt;[%c4Type%]&lt;/div&gt;&lt;br&gt;&lt;div&gt;&lt;font style=&quot;font-size: 11px&quot;&gt;&lt;font color=&quot;#cccccc&quot;&gt;%c4Description%&lt;/font&gt;&lt;/div&gt;" id="_17nwlh-U86xKVVxEvVM-124">
          <mxCell style="rounded=1;whiteSpace=wrap;html=1;labelBackgroundColor=none;fillColor=#8C8496;fontColor=#ffffff;align=center;arcSize=10;strokeColor=#736782;metaEdit=1;resizable=0;points=[[0.25,0,0],[0.5,0,0],[0.75,0,0],[1,0.25,0],[1,0.5,0],[1,0.75,0],[0.75,1,0],[0.5,1,0],[0.25,1,0],[0,0.75,0],[0,0.5,0],[0,0.25,0]];" parent="1" vertex="1">
            <mxGeometry x="5100" y="621.5" width="240" height="120" as="geometry" />
          </mxCell>
        </object>
        <object placeholders="1" c4Name="Advego" c4Type="Software System" c4Description="Сервис по проверки текста на SEO метрики." label="&lt;font style=&quot;font-size: 16px&quot;&gt;&lt;b&gt;%c4Name%&lt;/b&gt;&lt;/font&gt;&lt;div&gt;[%c4Type%]&lt;/div&gt;&lt;br&gt;&lt;div&gt;&lt;font style=&quot;font-size: 11px&quot;&gt;&lt;font color=&quot;#cccccc&quot;&gt;%c4Description%&lt;/font&gt;&lt;/div&gt;" id="_17nwlh-U86xKVVxEvVM-125">
          <mxCell style="rounded=1;whiteSpace=wrap;html=1;labelBackgroundColor=none;fillColor=#8C8496;fontColor=#ffffff;align=center;arcSize=10;strokeColor=#736782;metaEdit=1;resizable=0;points=[[0.25,0,0],[0.5,0,0],[0.75,0,0],[1,0.25,0],[1,0.5,0],[1,0.75,0],[0.75,1,0],[0.5,1,0],[0.25,1,0],[0,0.75,0],[0,0.5,0],[0,0.25,0]];" parent="1" vertex="1">
            <mxGeometry x="5100" y="771.5" width="240" height="120" as="geometry" />
          </mxCell>
        </object>
        <mxCell id="_17nwlh-U86xKVVxEvVM-126" style="edgeStyle=orthogonalEdgeStyle;rounded=0;orthogonalLoop=1;jettySize=auto;html=1;exitX=1;exitY=0.25;exitDx=0;exitDy=0;exitPerimeter=0;entryX=0;entryY=0.5;entryDx=0;entryDy=0;entryPerimeter=0;curved=1;" parent="1" source="_17nwlh-U86xKVVxEvVM-102" target="_17nwlh-U86xKVVxEvVM-124" edge="1">
          <mxGeometry relative="1" as="geometry" />
        </mxCell>
        <mxCell id="_17nwlh-U86xKVVxEvVM-127" style="edgeStyle=orthogonalEdgeStyle;rounded=0;orthogonalLoop=1;jettySize=auto;html=1;exitX=1;exitY=0.75;exitDx=0;exitDy=0;exitPerimeter=0;entryX=0;entryY=0.5;entryDx=0;entryDy=0;entryPerimeter=0;curved=1;" parent="1" source="_17nwlh-U86xKVVxEvVM-102" target="_17nwlh-U86xKVVxEvVM-125" edge="1">
          <mxGeometry relative="1" as="geometry" />
        </mxCell>
        <object placeholders="1" c4Name="ChangeStatusNews" c4Type="Container" c4Technology="e.g. Apache Kafka, etc." c4Description="Топик Kafka куда пишутся события об изменении статуса &quot;Новости&quot;" label="&lt;font style=&quot;font-size: 16px&quot;&gt;&lt;b&gt;%c4Name%&lt;/b&gt;&lt;/font&gt;&lt;div&gt;[%c4Type%:&amp;nbsp;%c4Technology%]&lt;/div&gt;&lt;br&gt;&lt;div&gt;&lt;font style=&quot;font-size: 11px&quot;&gt;&lt;font color=&quot;#E6E6E6&quot;&gt;%c4Description%&lt;/font&gt;&lt;/div&gt;" id="_17nwlh-U86xKVVxEvVM-129">
          <mxCell style="shape=cylinder3;size=15;direction=south;whiteSpace=wrap;html=1;boundedLbl=1;rounded=0;labelBackgroundColor=none;fillColor=#23A2D9;fontSize=12;fontColor=#ffffff;align=center;strokeColor=#0E7DAD;metaEdit=1;points=[[0.5,0,0],[1,0.25,0],[1,0.5,0],[1,0.75,0],[0.5,1,0],[0,0.75,0],[0,0.5,0],[0,0.25,0]];resizable=0;" parent="1" vertex="1">
            <mxGeometry x="3610" y="380" width="240" height="120" as="geometry" />
          </mxCell>
        </object>
        <mxCell id="_17nwlh-U86xKVVxEvVM-130" style="edgeStyle=orthogonalEdgeStyle;rounded=0;orthogonalLoop=1;jettySize=auto;html=1;entryX=0.5;entryY=1;entryDx=0;entryDy=0;entryPerimeter=0;" parent="1" source="_17nwlh-U86xKVVxEvVM-106" target="_17nwlh-U86xKVVxEvVM-129" edge="1">
          <mxGeometry relative="1" as="geometry" />
        </mxCell>
        <mxCell id="_17nwlh-U86xKVVxEvVM-131" value="Publish event" style="edgeLabel;html=1;align=center;verticalAlign=middle;resizable=0;points=[];" parent="_17nwlh-U86xKVVxEvVM-130" vertex="1" connectable="0">
          <mxGeometry x="-0.1039" y="-2" relative="1" as="geometry">
            <mxPoint x="1" as="offset" />
          </mxGeometry>
        </mxCell>
        <mxCell id="_17nwlh-U86xKVVxEvVM-132" style="edgeStyle=orthogonalEdgeStyle;rounded=0;orthogonalLoop=1;jettySize=auto;html=1;exitX=0;exitY=0.5;exitDx=0;exitDy=0;exitPerimeter=0;entryX=0.5;entryY=0;entryDx=0;entryDy=0;entryPerimeter=0;curved=1;" parent="1" source="_17nwlh-U86xKVVxEvVM-91" target="_17nwlh-U86xKVVxEvVM-129" edge="1">
          <mxGeometry relative="1" as="geometry" />
        </mxCell>
        <mxCell id="_17nwlh-U86xKVVxEvVM-133" value="Read event" style="edgeLabel;html=1;align=center;verticalAlign=middle;resizable=0;points=[];" parent="_17nwlh-U86xKVVxEvVM-132" vertex="1" connectable="0">
          <mxGeometry x="-0.066" y="7" relative="1" as="geometry">
            <mxPoint x="38" y="-10" as="offset" />
          </mxGeometry>
        </mxCell>
        <object placeholders="1" c4Name="Prometheus" c4Type="Software System" c4Description="Сервис по сбору метрик" label="&lt;font style=&quot;font-size: 16px&quot;&gt;&lt;b&gt;%c4Name%&lt;/b&gt;&lt;/font&gt;&lt;div&gt;[%c4Type%]&lt;/div&gt;&lt;br&gt;&lt;div&gt;&lt;font style=&quot;font-size: 11px&quot;&gt;&lt;font color=&quot;#cccccc&quot;&gt;%c4Description%&lt;/font&gt;&lt;/div&gt;" id="_17nwlh-U86xKVVxEvVM-134">
          <mxCell style="rounded=1;whiteSpace=wrap;html=1;labelBackgroundColor=none;fillColor=#8C8496;fontColor=#ffffff;align=center;arcSize=10;strokeColor=#736782;metaEdit=1;resizable=0;points=[[0.25,0,0],[0.5,0,0],[0.75,0,0],[1,0.25,0],[1,0.5,0],[1,0.75,0],[0.75,1,0],[0.5,1,0],[0.25,1,0],[0,0.75,0],[0,0.5,0],[0,0.25,0]];" parent="1" vertex="1">
            <mxGeometry x="2890" y="380" width="240" height="120" as="geometry" />
          </mxCell>
        </object>
        <mxCell id="_17nwlh-U86xKVVxEvVM-135" style="edgeStyle=orthogonalEdgeStyle;rounded=0;orthogonalLoop=1;jettySize=auto;html=1;exitX=0;exitY=0.5;exitDx=0;exitDy=0;exitPerimeter=0;entryX=1;entryY=0.5;entryDx=0;entryDy=0;entryPerimeter=0;" parent="1" source="_17nwlh-U86xKVVxEvVM-106" target="_17nwlh-U86xKVVxEvVM-134" edge="1">
          <mxGeometry relative="1" as="geometry" />
        </mxCell>
        <mxCell id="_17nwlh-U86xKVVxEvVM-136" value="PromQL" style="edgeLabel;html=1;align=center;verticalAlign=middle;resizable=0;points=[];" parent="_17nwlh-U86xKVVxEvVM-135" vertex="1" connectable="0">
          <mxGeometry x="0.084" y="-1" relative="1" as="geometry">
            <mxPoint as="offset" />
          </mxGeometry>
        </mxCell>
        <object placeholders="1" c4Name="Новостной портал" c4Type="SystemScopeBoundary" c4Application="Software System" label="&lt;font style=&quot;font-size: 16px&quot;&gt;&lt;b&gt;&lt;div style=&quot;text-align: left&quot;&gt;%c4Name%&lt;/div&gt;&lt;/b&gt;&lt;/font&gt;&lt;div style=&quot;text-align: left&quot;&gt;[%c4Application%]&lt;/div&gt;" id="_17nwlh-U86xKVVxEvVM-138">
          <mxCell style="rounded=1;fontSize=11;whiteSpace=wrap;html=1;dashed=1;arcSize=20;fillColor=none;strokeColor=#666666;fontColor=#333333;labelBackgroundColor=none;align=left;verticalAlign=bottom;labelBorderColor=none;spacingTop=0;spacing=10;dashPattern=8 4;metaEdit=1;rotatable=0;perimeter=rectanglePerimeter;noLabel=0;labelPadding=0;allowArrows=0;connectable=0;expand=0;recursiveResize=0;editable=1;pointerEvents=0;absoluteArcSize=1;points=[[0.25,0,0],[0.5,0,0],[0.75,0,0],[1,0.25,0],[1,0.5,0],[1,0.75,0],[0.75,1,0],[0.5,1,0],[0.25,1,0],[0,0.75,0],[0,0.5,0],[0,0.25,0]];" parent="1" vertex="1">
            <mxGeometry x="3180" y="-150" width="1810" height="1550" as="geometry" />
          </mxCell>
        </object>
      </root>
    </mxGraphModel>
  </diagram>
</mxfile>
